HIERARCHY
ROOT Hips
{
  OFFSET 5.84602e-005 68.8428 3.50346
  CHANNELS 6 Xposition Yposition Zposition Zrotation Xrotation Yrotation
  JOINT Spine
  {
    OFFSET 0 8.597 -4.6522
    CHANNELS 3 Zrotation Xrotation Yrotation
    JOINT Spine1
    {
      OFFSET 0 7.8454 0.4098
      CHANNELS 3 Zrotation Xrotation Yrotation
      JOINT Spine2
      {
        OFFSET 0 9.7078 -2.1609
        CHANNELS 3 Zrotation Xrotation Yrotation
        JOINT Neck
        {
          OFFSET 0 21.8761 -0.4549
          CHANNELS 3 Zrotation Xrotation Yrotation
          JOINT Head
          {
            OFFSET 0 12.3537 3.3602
            CHANNELS 3 Zrotation Xrotation Yrotation
            End Site
            {
              OFFSET 0.0001 18.9506 0.5657
            }
          }
        }
        JOINT LeftShoulder
        {
          OFFSET 2.2086 21.1115 7.2329
          CHANNELS 3 Zrotation Xrotation Yrotation
          JOINT LeftArm
          {
            OFFSET 13.1193 3.0282 -4.8998
            CHANNELS 3 Zrotation Xrotation Yrotation
            JOINT LeftForeArm
            {
              OFFSET 27.4081 -0.0973053 -0.2375
              CHANNELS 3 Zrotation Xrotation Yrotation
              JOINT LeftHand
              {
                OFFSET 22.8641 0.0662994 -0.1369
                CHANNELS 3 Zrotation Xrotation Yrotation
                JOINT LeftHandIndex1
                {
                  OFFSET 8.8614 0.775009 2.4612
                  CHANNELS 3 Zrotation Xrotation Yrotation
                  JOINT LeftHandIndex2
                  {
                    OFFSET 3.3146 -0.808304 0.5841
                    CHANNELS 3 Zrotation Xrotation Yrotation
                    JOINT LeftHandIndex3
                    {
                      OFFSET 2.2628 -0.552002 0.3989
                      CHANNELS 3 Zrotation Xrotation Yrotation
                      End Site
                      {
                        OFFSET 1.6102 -0.4807 0.2612
                      }
                    }
                  }
                }
                JOINT LeftHandMiddle1
                {
                  OFFSET 8.9937 0.895004 0.2143
                  CHANNELS 3 Zrotation Xrotation Yrotation
                  JOINT LeftHandMiddle2
                  {
                    OFFSET 4.0984 0.0113983 -0.0242
                    CHANNELS 3 Zrotation Xrotation Yrotation
                    JOINT LeftHandMiddle3
                    {
                      OFFSET 2.2716 0.00689697 -0.0138001
                      CHANNELS 3 Zrotation Xrotation Yrotation
                      End Site
                      {
                        OFFSET 2.0404 -0.1441 0.0027
                      }
                    }
                  }
                }
                JOINT LeftHandRing1
                {
                  OFFSET 8.5234 0.597198 -2.0164
                  CHANNELS 3 Zrotation Xrotation Yrotation
                  JOINT LeftHandRing2
                  {
                    OFFSET 3.7188 -0.188293 -0.2328
                    CHANNELS 3 Zrotation Xrotation Yrotation
                    JOINT LeftHandRing3
                    {
                      OFFSET 2.1191 -0.106598 -0.1332
                      CHANNELS 3 Zrotation Xrotation Yrotation
                      End Site
                      {
                        OFFSET 1.8737 -0.2304 -0.0886
                      }
                    }
                  }
                }
                JOINT LeftHandPinky1
                {
                  OFFSET 7.9094 -0.601089 -3.4825
                  CHANNELS 3 Zrotation Xrotation Yrotation
                  JOINT LeftHandPinky2
                  {
                    OFFSET 2.2874 -0.477005 -0.6314
                    CHANNELS 3 Zrotation Xrotation Yrotation
                    JOINT LeftHandPinky3
                    {
                      OFFSET 1.6774 -0.349396 -0.4633
                      CHANNELS 3 Zrotation Xrotation Yrotation
                      End Site
                      {
                        OFFSET 1.4888 -0.4091 -0.3416
                      }
                    }
                  }
                }
                JOINT LeftHandThumb1
                {
                  OFFSET 1.833 -1.3875 1.3896
                  CHANNELS 3 Zrotation Xrotation Yrotation
                  JOINT LeftHandThumb2
                  {
                    OFFSET 3.4129 -1.121 2.5732
                    CHANNELS 3 Zrotation Xrotation Yrotation
                    JOINT LeftHandThumb3
                    {
                      OFFSET 2.2474 -0.804199 1.6192
                      CHANNELS 3 Zrotation Xrotation Yrotation
                      End Site
                      {
                        OFFSET 1.6527 -0.5689 1.1317
                      }
                    }
                  }
                }
              }
            }
          }
        }
        JOINT RightShoulder
        {
          OFFSET -2.2086 21.1115 7.2329
          CHANNELS 3 Zrotation Xrotation Yrotation
          JOINT RightArm
          {
            OFFSET -13.1216 3.0287 -4.9007
            CHANNELS 3 Zrotation Xrotation Yrotation
            JOINT RightForeArm
            {
              OFFSET -27.4081 -0.0973053 -0.2375
              CHANNELS 3 Zrotation Xrotation Yrotation
              JOINT RightHand
              {
                OFFSET -22.8641 0.0664063 -0.1369
                CHANNELS 3 Zrotation Xrotation Yrotation
                JOINT RightHandIndex1
                {
                  OFFSET -8.8614 0.774994 2.4612
                  CHANNELS 3 Zrotation Xrotation Yrotation
                  JOINT RightHandIndex2
                  {
                    OFFSET -3.3146 -0.808304 0.5841
                    CHANNELS 3 Zrotation Xrotation Yrotation
                    JOINT RightHandIndex3
                    {
                      OFFSET -2.2628 -0.552002 0.3989
                      CHANNELS 3 Zrotation Xrotation Yrotation
                      End Site
                      {
                        OFFSET -1.6102 -0.4807 0.2612
                      }
                    }
                  }
                }
                JOINT RightHandMiddle1
                {
                  OFFSET -8.9937 0.894989 0.2143
                  CHANNELS 3 Zrotation Xrotation Yrotation
                  JOINT RightHandMiddle2
                  {
                    OFFSET -4.0984 0.0113983 -0.0242
                    CHANNELS 3 Zrotation Xrotation Yrotation
                    JOINT RightHandMiddle3
                    {
                      OFFSET -2.2716 0.00691223 -0.0138001
                      CHANNELS 3 Zrotation Xrotation Yrotation
                      End Site
                      {
                        OFFSET -2.0404 -0.1441 0.0027
                      }
                    }
                  }
                }
                JOINT RightHandRing1
                {
                  OFFSET -8.5234 0.597198 -2.0164
                  CHANNELS 3 Zrotation Xrotation Yrotation
                  JOINT RightHandRing2
                  {
                    OFFSET -3.7188 -0.188309 -0.2328
                    CHANNELS 3 Zrotation Xrotation Yrotation
                    JOINT RightHandRing3
                    {
                      OFFSET -2.1191 -0.106598 -0.1332
                      CHANNELS 3 Zrotation Xrotation Yrotation
                      End Site
                      {
                        OFFSET -1.8737 -0.2304 -0.0886
                      }
                    }
                  }
                }
                JOINT RightHandPinky1
                {
                  OFFSET -7.9094 -0.601105 -3.4825
                  CHANNELS 3 Zrotation Xrotation Yrotation
                  JOINT RightHandPinky2
                  {
                    OFFSET -2.2874 -0.477005 -0.6314
                    CHANNELS 3 Zrotation Xrotation Yrotation
                    JOINT RightHandPinky3
                    {
                      OFFSET -1.6774 -0.349396 -0.4633
                      CHANNELS 3 Zrotation Xrotation Yrotation
                      End Site
                      {
                        OFFSET -1.4888 -0.4091 -0.3416
                      }
                    }
                  }
                }
                JOINT RightHandThumb1
                {
                  OFFSET -1.833 -1.38751 1.3896
                  CHANNELS 3 Zrotation Xrotation Yrotation
                  JOINT RightHandThumb2
                  {
                    OFFSET -3.41299 -1.12099 2.5732
                    CHANNELS 3 Zrotation Xrotation Yrotation
                    JOINT RightHandThumb3
                    {
                      OFFSET -2.24741 -0.804108 1.6192
                      CHANNELS 3 Zrotation Xrotation Yrotation
                      End Site
                      {
                        OFFSET -1.6527 -0.5689 1.1317
                      }
                    }
                  }
                }
              }
            }
          }
        }
      }
    }
  }
  JOINT RightUpLeg
  {
    OFFSET -9.1966 3.8861 -0.7581
    CHANNELS 3 Zrotation Xrotation Yrotation
    JOINT RightLeg
    {
      OFFSET -0.7359 -41.0265 0
      CHANNELS 3 Zrotation Xrotation Yrotation
      JOINT RightFoot
      {
        OFFSET 0 -40.2855 0
        CHANNELS 3 Zrotation Xrotation Yrotation
        JOINT RightToeBase
        {
          OFFSET 0 -5.6122 11.7359
          CHANNELS 3 Zrotation Xrotation Yrotation
          End Site
          {
            OFFSET 0 0 7.8731
          }
        }
      }
    }
  }
  JOINT LeftUpLeg
  {
    OFFSET 9.1965 3.8864 -0.7581
    CHANNELS 3 Zrotation Xrotation Yrotation
    JOINT LeftLeg
    {
      OFFSET 0.7359 -41.0268 0
      CHANNELS 3 Zrotation Xrotation Yrotation
      JOINT LeftFoot
      {
        OFFSET 0 -40.2855 0
        CHANNELS 3 Zrotation Xrotation Yrotation
        JOINT LeftToeBase
        {
          OFFSET 0 -5.6122 11.7359
          CHANNELS 3 Zrotation Xrotation Yrotation
          End Site
          {
            OFFSET 0 0 7.8731
          }
        }
      }
    }
  }
}
MOTION
Frames:	5
Frame Time:	0.0333333
5.84602e-005 68.8428 3.50346 0 0 -0 0 0 -0 0 0 -0 0 0 -0 0 0 -0 0 0 -0 0 0 -0 0 0 -0 0 0 -0 0 0 -0 0 0 -0 0 0 -0 0 0 -0 0 0 -0 -0.0146107 -8.87603e-005 -2.63497e-007 2.99804e-018 -2.42657e-020 -1.42182e-022 0 0 -0 -0.0187562 -0.001176 5.858e-005 5.06224e-018 3.88251e-019 1.21329e-020 0 0 -0 -0.012269 -0.00324817 0.000675346 -1.74678e-018 3.88251e-019 -0 0 0 -0 0 0 -0 0 0 -0 0 0 -0 0 0 -0 0 0 -0 0 0 -0 0 0 -0 0 0 -0 0 0 -0 0 0 -0 0.0149955 -9.10982e-005 2.64101e-007 -9.69331e-018 1.21329e-020 -4.7394e-023 0 0 -0 0.0189956 -0.00119102 -5.96516e-005 -5.41541e-019 0 2.42657e-020 0 0 -0 0.0122698 -0.00324857 -0.000673756 -2.00796e-019 0 -1.94126e-019 0 0 -0 0 0 -0 0 0 -0 3.39842 1.33031 -0.0637918 -5.65207e-008 0.834868 -0.000436188 -3.39935 -2.16518 -0.0642563 -8.89002e-024 -1.18485e-023 -1.48106e-024 -3.39844 1.35642 0.0640283 -3.18788e-007 0.782166 -0.000588827 3.39931 -2.13858 0.0634662 1.1399e-023 0 -0 
-36.8379 1.89916 30.1888 -105.104 6.93879 -101.105 0.791573 12.2587 -0.696207 1.80412 24.5051 -1.62855 1.80412 24.5051 -1.62854 2.03521 10.991 -0.39093 2.13154 -20.3212 -1.26146 -50.6489 17.5386 -17.43 -97.8223 -42.9796 172.499 -41.0759 41.8561 -89.8675 -15.5087 -8.70405 -1.74139 2.54111e-006 1.18586e-006 -9.39483e-007 1.40317e-007 -2.35105e-006 4.18167e-006 4.18167e-006 5.40596e-007 -1.40317e-007 2.54111e-006 1.18586e-006 -9.39483e-007 -0.0146371 -9.13476e-005 1.05835e-006 4.18137e-006 5.40613e-007 -1.40251e-007 2.54111e-006 1.18586e-006 -9.39483e-007 -0.0187921 -0.00117976 5.89992e-005 4.18128e-006 5.40593e-007 -1.4027e-007 2.54111e-006 1.18586e-006 -9.39483e-007 -0.0122794 -0.00324943 0.000673516 4.18142e-006 5.4052e-007 -1.40364e-007 2.54111e-006 1.18586e-006 -9.39483e-007 1.40317e-007 -2.35105e-006 4.18167e-006 4.18167e-006 5.40596e-007 -1.40317e-007 -6.65 6.78237 -2.77641 58.3056 33.0217 22.7713 45.465 -11.9439 108.542 24.9987 -0.00105676 17.9967 7.01238e-007 -1.10054e-006 -1.04815e-006 1.40248e-006 -2.20108e-006 -2.09629e-006 7.01238e-007 -1.10054e-006 -1.04815e-006 7.01238e-007 -1.10054e-006 -1.04815e-006 0.0150126 -9.84032e-005 3.46837e-006 4.3928e-007 1.13629e-006 -1.90086e-006 7.01238e-007 -1.10054e-006 -1.04815e-006 0.0189554 -0.0011889 -5.76891e-005 7.01284e-007 -1.10072e-006 -1.04797e-006 7.01238e-007 -1.10054e-006 -1.04815e-006 0.0122824 -0.00324929 -0.000679891 7.01251e-007 -1.10066e-006 -1.04805e-006 7.01238e-007 -1.10054e-006 -1.04815e-006 1.40248e-006 -2.20108e-006 -2.09629e-006 7.01238e-007 -1.10054e-006 -1.04815e-006 0.0495958 3.10824 25.5674 0.213511 41.5853 -1.35542 22.9366 28.041 2.34852 2.0593e-006 -2.56908e-006 -5.88545e-007 23.9364 -13.1309 -8.1059 178.485 83.3997 -176.313 -26.492 22.9615 2.69838 1.47904e-006 5.32807e-007 -5.51247e-006 
-36.8379 1.89921 30.1887 -105.104 6.93879 -101.105 0.791573 12.2587 -0.696207 1.80412 24.5051 -1.62855 1.80412 24.5051 -1.62854 2.03521 10.991 -0.39093 1.82607 -20.4617 -1.64698 -50.6489 17.5386 -17.43 -97.8223 -42.9796 172.499 -41.0759 41.8562 -89.8676 -15.5087 -8.70404 -1.7414 4.18167e-006 5.40597e-007 -1.40316e-007 2.54111e-006 1.18586e-006 -9.39482e-007 4.18167e-006 5.40597e-007 -1.40316e-007 4.18167e-006 5.40597e-007 -1.40316e-007 -0.0145957 -8.86922e-005 -3.75532e-006 2.54236e-006 1.18599e-006 -9.39333e-007 4.18167e-006 5.40597e-007 -1.40316e-007 -0.0187633 -0.00117637 5.04246e-005 4.18128e-006 5.40594e-007 -1.4027e-007 4.18167e-006 5.40597e-007 -1.40316e-007 -0.0122794 -0.00324943 0.000673514 2.54215e-006 1.18622e-006 -9.39485e-007 4.18167e-006 5.40597e-007 -1.40316e-007 2.54111e-006 1.18586e-006 -9.39482e-007 4.18167e-006 5.40597e-007 -1.40316e-007 -6.65 6.78237 -2.77641 58.3056 33.0218 22.7713 44.632 -11.2689 108.798 23.0444 -0.00103112 17.9967 -7.06225e-007 1.09135e-006 1.04925e-006 6.61034e-006 2.54413e-006 8.24303e-006 -8.72847e-007 3.23195e-006 1.93078e-007 -7.06225e-007 1.09135e-006 1.04925e-006 0.0149743 -8.48323e-005 2.4389e-006 -7.0627e-007 1.09148e-006 1.04911e-006 -7.06225e-007 1.09135e-006 1.04925e-006 0.0189837 -0.00118072 -6.09775e-005 -7.06273e-007 1.09152e-006 1.04908e-006 -7.06225e-007 1.09135e-006 1.04925e-006 0.0122742 -0.00324053 -0.000679769 -7.06239e-007 1.09146e-006 1.04916e-006 -7.06225e-007 1.09135e-006 1.04925e-006 6.61034e-006 2.54413e-006 8.24303e-006 -8.72847e-007 3.23195e-006 1.93078e-007 0.0496121 3.11166 25.5673 0.211967 41.5824 -1.3553 22.9366 28.0409 2.34856 -5.44779e-006 -1.21262e-006 4.82312e-006 24.0192 -13.1359 -8.01383 178.484 83.4009 -176.312 -26.4916 22.9614 2.6985 1.61696e-006 6.65921e-007 2.90742e-008 
-36.8379 1.89927 30.1887 -105.104 6.93879 -101.105 0.791591 12.2587 -0.696213 1.80413 24.5051 -1.62854 1.80413 24.5051 -1.62856 2.03502 10.9909 -0.390874 1.51888 -20.6004 -2.03419 -50.6489 17.5386 -17.43 -97.8223 -42.9796 172.499 -41.0759 41.8562 -89.8676 -15.5087 -8.70403 -1.74139 4.18167e-006 5.40597e-007 -1.40316e-007 -1.40316e-007 2.35105e-006 -4.18167e-006 4.18167e-006 5.40597e-007 -1.40316e-007 4.18167e-006 5.40597e-007 -1.40316e-007 -0.0146069 -8.5732e-005 -1.66498e-006 4.18137e-006 5.40613e-007 -1.4025e-007 4.18167e-006 5.40597e-007 -1.40316e-007 -0.018768 -0.00117665 4.93418e-005 4.18128e-006 5.40594e-007 -1.40269e-007 4.18167e-006 5.40597e-007 -1.40316e-007 -0.0122754 -0.00324601 0.000678426 4.18142e-006 5.40521e-007 -1.40363e-007 4.18167e-006 5.40597e-007 -1.40316e-007 -1.40316e-007 2.35105e-006 -4.18167e-006 4.18167e-006 5.40597e-007 -1.40316e-007 -6.65 6.78239 -2.77639 58.3056 33.0217 22.7713 43.7954 -10.5958 109.065 21.0736 -0.000974225 17.9968 1.59028e-015 0 -0 -3.18055e-015 6.36111e-015 1.59028e-015 -1.59028e-015 6.36111e-015 1.59028e-015 1.59028e-015 0 -0 0.0149989 -9.49055e-005 5.80792e-006 -3.18055e-015 0 -0 1.59028e-015 0 -0 0.0189756 -0.00118978 -5.89161e-005 -3.18055e-015 6.36111e-015 1.59028e-015 1.59028e-015 0 -0 0.0122623 -0.00324489 -0.0006791 1.59028e-015 -3.18055e-015 1.59028e-015 1.59028e-015 0 -0 -3.18055e-015 6.36111e-015 1.59028e-015 -1.59028e-015 6.36111e-015 1.59028e-015 0.049601 3.10891 25.5674 0.213258 41.5848 -1.35542 22.9365 28.0409 2.34858 4.1186e-006 -5.13816e-006 -1.17709e-006 24.1022 -13.1409 -7.92169 178.484 83.4022 -176.312 -26.4912 22.9614 2.69856 -2.51686e-007 3.41321e-007 4.51558e-008 
-36.8379 1.89933 30.1887 -105.104 6.93879 -101.105 0.791615 12.2587 -0.696217 1.80413 24.5051 -1.62856 1.8041 24.5051 -1.62855 2.03512 10.9909 -0.390829 1.21001 -20.7374 -2.42306 -50.6489 17.5386 -17.43 -97.8223 -42.9796 172.499 -41.0759 41.8562 -89.8676 -15.5087 -8.70403 -1.74139 -1.64055e-006 6.45265e-007 -7.99163e-007 6.36111e-015 -1.74931e-014 3.18055e-015 3.18055e-015 -1.82882e-014 1.59028e-015 -1.64055e-006 6.45265e-007 -7.99163e-007 -0.0146267 -8.88237e-005 -1.384e-006 -1.639e-006 6.45376e-007 -7.99079e-007 -1.64055e-006 6.45265e-007 -7.99163e-007 -0.0188059 -0.00117799 6.2028e-005 6.36111e-015 -7.95139e-016 3.18055e-015 -1.64055e-006 6.45265e-007 -7.99163e-007 -0.0122614 -0.00323537 0.000672536 0 3.18055e-015 -0 -1.64055e-006 6.45265e-007 -7.99163e-007 6.36111e-015 -1.74931e-014 3.18055e-015 3.18055e-015 -1.82882e-014 1.59028e-015 -6.65 6.78237 -2.77639 58.3056 33.0218 22.7713 42.9554 -9.92485 109.341 19.0874 -0.000923492 17.9968 -2.68968e-008 -1.94727e-006 8.69807e-007 7.15126e-007 -1.07259e-006 -1.05126e-006 -1.59028e-015 0 1.59028e-015 -2.68968e-008 -1.94727e-006 8.69807e-007 0.0149843 -9.53457e-005 -2.02376e-007 -1.59028e-015 6.36111e-015 -0 -2.68968e-008 -1.94727e-006 8.69807e-007 0.019021 -0.00119186 -6.48337e-005 4.77083e-015 -3.18055e-015 -0 -2.68968e-008 -1.94727e-006 8.69807e-007 0.0122528 -0.00323747 -0.000675962 1.59028e-015 0 -1.59028e-015 -2.68968e-008 -1.94727e-006 8.69807e-007 7.15126e-007 -1.07259e-006 -1.05126e-006 -1.59028e-015 0 1.59028e-015 0.0496184 3.11228 25.5673 0.211747 41.5819 -1.35533 22.9365 28.0409 2.34858 4.87055e-006 -5.27076e-008 8.61767e-006 24.185 -13.1457 -7.82956 178.484 83.4034 -176.311 -26.4908 22.9613 2.69872 -4.77083e-015 1.59028e-015 9.54166e-015 
